<svg width="613" height="242" viewBox="0 0 613 242" fill="none" xmlns="http://www.w3.org/2000/svg">
<mask id="path-1-outside-1_52_309" maskUnits="userSpaceOnUse" x="-5" y="34" width="639" height="174" fill="black">
<rect fill="white" x="-5" y="34" width="639" height="174"/>
<path d="M9.375 194V48.5455H48.8636V105.364H101.136V48.5455H140.625V194H101.136V137.182H48.8636V194H9.375ZM198.864 48.5455V194H159.375V48.5455H198.864ZM273.544 194H217.578V48.5455H272.976C287.938 48.5455 300.864 51.4574 311.754 57.2812C322.692 63.0578 331.12 71.3911 337.038 82.2812C343.004 93.1241 345.987 106.121 345.987 121.273C345.987 136.424 343.028 149.445 337.109 160.335C331.191 171.178 322.81 179.511 311.967 185.335C301.125 191.112 288.317 194 273.544 194ZM257.067 160.477H272.124C279.321 160.477 285.452 159.317 290.518 156.997C295.632 154.677 299.515 150.676 302.166 144.994C304.865 139.312 306.214 131.405 306.214 121.273C306.214 111.14 304.841 103.233 302.095 97.5511C299.396 91.8693 295.419 87.8684 290.163 85.5483C284.955 83.2282 278.563 82.0682 270.987 82.0682H257.067V160.477ZM364.258 194V48.5455H469.087V80.3636H403.746V105.364H463.69V137.182H403.746V162.182H468.803V194H364.258ZM488.672 194V48.5455H551.456C562.251 48.5455 571.697 50.5104 579.794 54.4403C587.891 58.3703 594.188 64.0284 598.686 71.4148C603.184 78.8011 605.433 87.6553 605.433 97.9773C605.433 108.394 603.113 117.177 598.473 124.327C593.88 131.476 587.417 136.874 579.084 140.52C570.798 144.166 561.115 145.989 550.036 145.989H512.536V115.307H542.081C546.721 115.307 550.675 114.739 553.942 113.602C557.256 112.419 559.789 110.548 561.541 107.991C563.34 105.435 564.24 102.097 564.24 97.9773C564.24 93.8106 563.34 90.4252 561.541 87.821C559.789 85.1695 557.256 83.2282 553.942 81.9972C550.675 80.7187 546.721 80.0795 542.081 80.0795H528.161V194H488.672ZM573.899 127.239L610.263 194H567.365L531.854 127.239H573.899Z"/>
</mask>
<path d="M9.375 194V48.5455H48.8636V105.364H101.136V48.5455H140.625V194H101.136V137.182H48.8636V194H9.375ZM198.864 48.5455V194H159.375V48.5455H198.864ZM273.544 194H217.578V48.5455H272.976C287.938 48.5455 300.864 51.4574 311.754 57.2812C322.692 63.0578 331.12 71.3911 337.038 82.2812C343.004 93.1241 345.987 106.121 345.987 121.273C345.987 136.424 343.028 149.445 337.109 160.335C331.191 171.178 322.81 179.511 311.967 185.335C301.125 191.112 288.317 194 273.544 194ZM257.067 160.477H272.124C279.321 160.477 285.452 159.317 290.518 156.997C295.632 154.677 299.515 150.676 302.166 144.994C304.865 139.312 306.214 131.405 306.214 121.273C306.214 111.14 304.841 103.233 302.095 97.5511C299.396 91.8693 295.419 87.8684 290.163 85.5483C284.955 83.2282 278.563 82.0682 270.987 82.0682H257.067V160.477ZM364.258 194V48.5455H469.087V80.3636H403.746V105.364H463.69V137.182H403.746V162.182H468.803V194H364.258ZM488.672 194V48.5455H551.456C562.251 48.5455 571.697 50.5104 579.794 54.4403C587.891 58.3703 594.188 64.0284 598.686 71.4148C603.184 78.8011 605.433 87.6553 605.433 97.9773C605.433 108.394 603.113 117.177 598.473 124.327C593.88 131.476 587.417 136.874 579.084 140.52C570.798 144.166 561.115 145.989 550.036 145.989H512.536V115.307H542.081C546.721 115.307 550.675 114.739 553.942 113.602C557.256 112.419 559.789 110.548 561.541 107.991C563.34 105.435 564.24 102.097 564.24 97.9773C564.24 93.8106 563.34 90.4252 561.541 87.821C559.789 85.1695 557.256 83.2282 553.942 81.9972C550.675 80.7187 546.721 80.0795 542.081 80.0795H528.161V194H488.672ZM573.899 127.239L610.263 194H567.365L531.854 127.239H573.899Z" fill="black"/>
<path d="M9.375 194H-4.625V208H9.375V194ZM9.375 48.5455V34.5455H-4.625V48.5455H9.375ZM48.8636 48.5455H62.8636V34.5455H48.8636V48.5455ZM48.8636 105.364H34.8636V119.364H48.8636V105.364ZM101.136 105.364V119.364H115.136V105.364H101.136ZM101.136 48.5455V34.5455H87.1364V48.5455H101.136ZM140.625 48.5455H154.625V34.5455H140.625V48.5455ZM140.625 194V208H154.625V194H140.625ZM101.136 194H87.1364V208H101.136V194ZM101.136 137.182H115.136V123.182H101.136V137.182ZM48.8636 137.182V123.182H34.8636V137.182H48.8636ZM48.8636 194V208H62.8636V194H48.8636ZM23.375 194V48.5455H-4.625V194H23.375ZM9.375 62.5455H48.8636V34.5455H9.375V62.5455ZM34.8636 48.5455V105.364H62.8636V48.5455H34.8636ZM48.8636 119.364H101.136V91.3636H48.8636V119.364ZM115.136 105.364V48.5455H87.1364V105.364H115.136ZM101.136 62.5455H140.625V34.5455H101.136V62.5455ZM126.625 48.5455V194H154.625V48.5455H126.625ZM140.625 180H101.136V208H140.625V180ZM115.136 194V137.182H87.1364V194H115.136ZM101.136 123.182H48.8636V151.182H101.136V123.182ZM34.8636 137.182V194H62.8636V137.182H34.8636ZM48.8636 180H9.375V208H48.8636V180ZM198.864 48.5455H212.864V34.5455H198.864V48.5455ZM198.864 194V208H212.864V194H198.864ZM159.375 194H145.375V208H159.375V194ZM159.375 48.5455V34.5455H145.375V48.5455H159.375ZM184.864 48.5455V194H212.864V48.5455H184.864ZM198.864 180H159.375V208H198.864V180ZM173.375 194V48.5455H145.375V194H173.375ZM159.375 62.5455H198.864V34.5455H159.375V62.5455ZM217.578 194H203.578V208H217.578V194ZM217.578 48.5455V34.5455H203.578V48.5455H217.578ZM311.754 57.2812L305.152 69.6268L305.184 69.6439L305.216 69.6608L311.754 57.2812ZM337.038 82.2812L324.738 88.9664L324.755 88.9983L324.772 89.0302L337.038 82.2812ZM337.109 160.335L349.398 167.043L349.404 167.032L349.41 167.02L337.109 160.335ZM311.967 185.335L318.55 197.691L318.571 197.68L318.592 197.669L311.967 185.335ZM257.067 160.477H243.067V174.477H257.067V160.477ZM290.518 156.997L284.734 144.248L284.712 144.258L284.689 144.268L290.518 156.997ZM302.166 144.994L289.52 138.988L289.5 139.031L289.48 139.074L302.166 144.994ZM302.095 97.5511L289.449 103.558L289.47 103.601L289.49 103.643L302.095 97.5511ZM290.163 85.5483L284.467 98.3369L284.488 98.3464L284.51 98.3559L290.163 85.5483ZM257.067 82.0682V68.0682H243.067V82.0682H257.067ZM273.544 180H217.578V208H273.544V180ZM231.578 194V48.5455H203.578V194H231.578ZM217.578 62.5455H272.976V34.5455H217.578V62.5455ZM272.976 62.5455C286.118 62.5455 296.68 65.0962 305.152 69.6268L318.356 44.9357C305.048 37.8186 289.758 34.5455 272.976 34.5455V62.5455ZM305.216 69.6608C313.708 74.1458 320.134 80.4955 324.738 88.9664L349.339 75.5961C342.106 62.2866 331.675 51.9697 318.292 44.9017L305.216 69.6608ZM324.772 89.0302C329.372 97.3901 331.987 107.957 331.987 121.273H359.987C359.987 104.286 356.636 88.858 349.304 75.5323L324.772 89.0302ZM331.987 121.273C331.987 134.603 329.39 145.221 324.809 153.65L349.41 167.02C356.666 153.67 359.987 138.245 359.987 121.273H331.987ZM324.821 153.628C320.199 162.094 313.782 168.469 305.343 173.002L318.592 197.669C331.838 190.554 342.182 180.262 349.398 167.043L324.821 153.628ZM305.385 172.979C296.94 177.478 286.483 180 273.544 180V208C290.151 208 305.309 204.745 318.55 197.691L305.385 172.979ZM257.067 174.477H272.124V146.477H257.067V174.477ZM272.124 174.477C280.769 174.477 289.001 173.09 296.348 169.726L284.689 144.268C281.903 145.544 277.872 146.477 272.124 146.477V174.477ZM296.303 169.746C304.817 165.883 310.965 159.246 314.853 150.915L289.48 139.074C288.065 142.106 286.447 143.471 284.734 144.248L296.303 169.746ZM314.812 151.001C318.784 142.638 320.214 132.358 320.214 121.273H292.214C292.214 130.453 290.946 135.987 289.52 138.988L314.812 151.001ZM320.214 121.273C320.214 110.166 318.756 99.8503 314.7 91.4588L289.49 103.643C290.927 106.616 292.214 112.114 292.214 121.273H320.214ZM314.741 91.5443C310.749 83.1404 304.443 76.5486 295.817 72.7407L284.51 98.3559C286.395 99.1882 288.043 100.598 289.449 103.558L314.741 91.5443ZM295.86 72.7597C288.373 69.4244 279.913 68.0682 270.987 68.0682V96.0682C277.213 96.0682 281.537 97.032 284.467 98.3369L295.86 72.7597ZM270.987 68.0682H257.067V96.0682H270.987V68.0682ZM243.067 82.0682V160.477H271.067V82.0682H243.067ZM364.258 194H350.258V208H364.258V194ZM364.258 48.5455V34.5455H350.258V48.5455H364.258ZM469.087 48.5455H483.087V34.5455H469.087V48.5455ZM469.087 80.3636V94.3636H483.087V80.3636H469.087ZM403.746 80.3636V66.3636H389.746V80.3636H403.746ZM403.746 105.364H389.746V119.364H403.746V105.364ZM463.69 105.364H477.69V91.3636H463.69V105.364ZM463.69 137.182V151.182H477.69V137.182H463.69ZM403.746 137.182V123.182H389.746V137.182H403.746ZM403.746 162.182H389.746V176.182H403.746V162.182ZM468.803 162.182H482.803V148.182H468.803V162.182ZM468.803 194V208H482.803V194H468.803ZM378.258 194V48.5455H350.258V194H378.258ZM364.258 62.5455H469.087V34.5455H364.258V62.5455ZM455.087 48.5455V80.3636H483.087V48.5455H455.087ZM469.087 66.3636H403.746V94.3636H469.087V66.3636ZM389.746 80.3636V105.364H417.746V80.3636H389.746ZM403.746 119.364H463.69V91.3636H403.746V119.364ZM449.69 105.364V137.182H477.69V105.364H449.69ZM463.69 123.182H403.746V151.182H463.69V123.182ZM389.746 137.182V162.182H417.746V137.182H389.746ZM403.746 176.182H468.803V148.182H403.746V176.182ZM454.803 162.182V194H482.803V162.182H454.803ZM468.803 180H364.258V208H468.803V180ZM488.672 194H474.672V208H488.672V194ZM488.672 48.5455V34.5455H474.672V48.5455H488.672ZM579.794 54.4403L573.681 67.0351L579.794 54.4403ZM598.686 71.4148L610.643 64.1331L610.643 64.1331L598.686 71.4148ZM598.473 124.327L586.729 116.705L586.712 116.733L586.694 116.76L598.473 124.327ZM579.084 140.52L573.472 127.694L573.459 127.7L573.445 127.705L579.084 140.52ZM512.536 145.989H498.536V159.989H512.536V145.989ZM512.536 115.307V101.307H498.536V115.307H512.536ZM553.942 113.602L558.541 126.825L558.596 126.806L558.65 126.787L553.942 113.602ZM561.541 107.991L550.092 99.9346L550.042 100.006L549.992 100.078L561.541 107.991ZM561.541 87.821L549.86 95.5386L549.94 95.6597L550.023 95.7791L561.541 87.821ZM553.942 81.9972L548.84 95.0346L548.953 95.0788L549.067 95.1211L553.942 81.9972ZM528.161 80.0795V66.0795H514.161V80.0795H528.161ZM528.161 194V208H542.161V194H528.161ZM573.899 127.239L586.194 120.542L582.216 113.239H573.899V127.239ZM610.263 194V208H633.83L622.557 187.303L610.263 194ZM567.365 194L555.005 200.575L558.955 208H567.365V194ZM531.854 127.239V113.239H508.55L519.493 133.813L531.854 127.239ZM502.672 194V48.5455H474.672V194H502.672ZM488.672 62.5455H551.456V34.5455H488.672V62.5455ZM551.456 62.5455C560.551 62.5455 567.832 64.1964 573.681 67.0351L585.907 41.8456C575.563 36.8244 563.952 34.5455 551.456 34.5455V62.5455ZM573.681 67.0351C579.463 69.8419 583.687 73.7017 586.729 78.6965L610.643 64.1331C604.689 54.3551 596.318 46.8987 585.907 41.8456L573.681 67.0351ZM586.729 78.6965C589.652 83.4973 591.433 89.7231 591.433 97.9773H619.433C619.433 85.5875 616.716 74.105 610.643 64.1331L586.729 78.6965ZM591.433 97.9773C591.433 106.293 589.599 112.284 586.729 116.705L610.217 131.948C616.627 122.071 619.433 110.494 619.433 97.9773H591.433ZM586.694 116.76C583.7 121.421 579.463 125.073 573.472 127.694L584.695 153.346C595.371 148.675 604.06 141.532 610.252 131.893L586.694 116.76ZM573.445 127.705C567.287 130.415 559.598 131.989 550.036 131.989V159.989C562.632 159.989 574.308 157.916 584.722 153.334L573.445 127.705ZM550.036 131.989H512.536V159.989H550.036V131.989ZM526.536 145.989V115.307H498.536V145.989H526.536ZM512.536 129.307H542.081V101.307H512.536V129.307ZM542.081 129.307C547.787 129.307 553.387 128.618 558.541 126.825L549.342 100.379C547.963 100.859 545.656 101.307 542.081 101.307V129.307ZM558.65 126.787C564.351 124.751 569.45 121.218 573.09 115.905L549.992 100.078C550.014 100.047 550.042 100.027 550.012 100.049C549.968 100.081 549.75 100.233 549.233 100.418L558.65 126.787ZM572.99 116.048C576.905 110.486 578.24 104.074 578.24 97.9773H550.24C550.24 100.119 549.776 100.383 550.092 99.9346L572.99 116.048ZM578.24 97.9773C578.24 91.8563 576.915 85.4441 573.059 79.863L550.023 95.7791C549.765 95.4063 550.24 95.7649 550.24 97.9773H578.24ZM573.222 80.1034C569.649 74.696 564.587 71.0165 558.816 68.8732L549.067 95.1211C549.557 95.3029 549.764 95.4521 549.812 95.4886C549.847 95.5157 549.847 95.5182 549.86 95.5386L573.222 80.1034ZM559.043 68.9598C553.719 66.8764 547.935 66.0795 542.081 66.0795V94.0795C545.508 94.0795 547.63 94.561 548.84 95.0346L559.043 68.9598ZM542.081 66.0795H528.161V94.0795H542.081V66.0795ZM514.161 80.0795V194H542.161V80.0795H514.161ZM528.161 180H488.672V208H528.161V180ZM561.605 133.935L597.968 200.697L622.557 187.303L586.194 120.542L561.605 133.935ZM610.263 180H567.365V208H610.263V180ZM579.725 187.425L544.214 120.664L519.493 133.813L555.005 200.575L579.725 187.425ZM531.854 141.239H573.899V113.239H531.854V141.239Z" fill="black" mask="url(#path-1-outside-1_52_309)"/>
<path d="M9.375 194H-4.625V208H9.375V194ZM9.375 48.5455V34.5455H-4.625V48.5455H9.375ZM48.8636 48.5455H62.8636V34.5455H48.8636V48.5455ZM48.8636 105.364H34.8636V119.364H48.8636V105.364ZM101.136 105.364V119.364H115.136V105.364H101.136ZM101.136 48.5455V34.5455H87.1364V48.5455H101.136ZM140.625 48.5455H154.625V34.5455H140.625V48.5455ZM140.625 194V208H154.625V194H140.625ZM101.136 194H87.1364V208H101.136V194ZM101.136 137.182H115.136V123.182H101.136V137.182ZM48.8636 137.182V123.182H34.8636V137.182H48.8636ZM48.8636 194V208H62.8636V194H48.8636ZM23.375 194V48.5455H-4.625V194H23.375ZM9.375 62.5455H48.8636V34.5455H9.375V62.5455ZM34.8636 48.5455V105.364H62.8636V48.5455H34.8636ZM48.8636 119.364H101.136V91.3636H48.8636V119.364ZM115.136 105.364V48.5455H87.1364V105.364H115.136ZM101.136 62.5455H140.625V34.5455H101.136V62.5455ZM126.625 48.5455V194H154.625V48.5455H126.625ZM140.625 180H101.136V208H140.625V180ZM115.136 194V137.182H87.1364V194H115.136ZM101.136 123.182H48.8636V151.182H101.136V123.182ZM34.8636 137.182V194H62.8636V137.182H34.8636ZM48.8636 180H9.375V208H48.8636V180ZM198.864 48.5455H212.864V34.5455H198.864V48.5455ZM198.864 194V208H212.864V194H198.864ZM159.375 194H145.375V208H159.375V194ZM159.375 48.5455V34.5455H145.375V48.5455H159.375ZM184.864 48.5455V194H212.864V48.5455H184.864ZM198.864 180H159.375V208H198.864V180ZM173.375 194V48.5455H145.375V194H173.375ZM159.375 62.5455H198.864V34.5455H159.375V62.5455ZM217.578 194H203.578V208H217.578V194ZM217.578 48.5455V34.5455H203.578V48.5455H217.578ZM311.754 57.2812L305.152 69.6268L305.184 69.6439L305.216 69.6608L311.754 57.2812ZM337.038 82.2812L324.738 88.9664L324.755 88.9983L324.772 89.0302L337.038 82.2812ZM337.109 160.335L349.398 167.043L349.404 167.032L349.41 167.02L337.109 160.335ZM311.967 185.335L318.55 197.691L318.571 197.68L318.592 197.669L311.967 185.335ZM257.067 160.477H243.067V174.477H257.067V160.477ZM290.518 156.997L284.734 144.248L284.712 144.258L284.689 144.268L290.518 156.997ZM302.166 144.994L289.52 138.988L289.5 139.031L289.48 139.074L302.166 144.994ZM302.095 97.5511L289.449 103.558L289.47 103.601L289.49 103.643L302.095 97.5511ZM290.163 85.5483L284.467 98.3369L284.488 98.3464L284.51 98.3559L290.163 85.5483ZM257.067 82.0682V68.0682H243.067V82.0682H257.067ZM273.544 180H217.578V208H273.544V180ZM231.578 194V48.5455H203.578V194H231.578ZM217.578 62.5455H272.976V34.5455H217.578V62.5455ZM272.976 62.5455C286.118 62.5455 296.68 65.0962 305.152 69.6268L318.356 44.9357C305.048 37.8186 289.758 34.5455 272.976 34.5455V62.5455ZM305.216 69.6608C313.708 74.1458 320.134 80.4955 324.738 88.9664L349.339 75.5961C342.106 62.2866 331.675 51.9697 318.292 44.9017L305.216 69.6608ZM324.772 89.0302C329.372 97.3901 331.987 107.957 331.987 121.273H359.987C359.987 104.286 356.636 88.858 349.304 75.5323L324.772 89.0302ZM331.987 121.273C331.987 134.603 329.39 145.221 324.809 153.65L349.41 167.02C356.666 153.67 359.987 138.245 359.987 121.273H331.987ZM324.821 153.628C320.199 162.094 313.782 168.469 305.343 173.002L318.592 197.669C331.838 190.554 342.182 180.262 349.398 167.043L324.821 153.628ZM305.385 172.979C296.94 177.478 286.483 180 273.544 180V208C290.151 208 305.309 204.745 318.55 197.691L305.385 172.979ZM257.067 174.477H272.124V146.477H257.067V174.477ZM272.124 174.477C280.769 174.477 289.001 173.09 296.348 169.726L284.689 144.268C281.903 145.544 277.872 146.477 272.124 146.477V174.477ZM296.303 169.746C304.817 165.883 310.965 159.246 314.853 150.915L289.48 139.074C288.065 142.106 286.447 143.471 284.734 144.248L296.303 169.746ZM314.812 151.001C318.784 142.638 320.214 132.358 320.214 121.273H292.214C292.214 130.453 290.946 135.987 289.52 138.988L314.812 151.001ZM320.214 121.273C320.214 110.166 318.756 99.8503 314.7 91.4588L289.49 103.643C290.927 106.616 292.214 112.114 292.214 121.273H320.214ZM314.741 91.5443C310.749 83.1404 304.443 76.5486 295.817 72.7407L284.51 98.3559C286.395 99.1882 288.043 100.598 289.449 103.558L314.741 91.5443ZM295.86 72.7597C288.373 69.4244 279.913 68.0682 270.987 68.0682V96.0682C277.213 96.0682 281.537 97.032 284.467 98.3369L295.86 72.7597ZM270.987 68.0682H257.067V96.0682H270.987V68.0682ZM243.067 82.0682V160.477H271.067V82.0682H243.067ZM364.258 194H350.258V208H364.258V194ZM364.258 48.5455V34.5455H350.258V48.5455H364.258ZM469.087 48.5455H483.087V34.5455H469.087V48.5455ZM469.087 80.3636V94.3636H483.087V80.3636H469.087ZM403.746 80.3636V66.3636H389.746V80.3636H403.746ZM403.746 105.364H389.746V119.364H403.746V105.364ZM463.69 105.364H477.69V91.3636H463.69V105.364ZM463.69 137.182V151.182H477.69V137.182H463.69ZM403.746 137.182V123.182H389.746V137.182H403.746ZM403.746 162.182H389.746V176.182H403.746V162.182ZM468.803 162.182H482.803V148.182H468.803V162.182ZM468.803 194V208H482.803V194H468.803ZM378.258 194V48.5455H350.258V194H378.258ZM364.258 62.5455H469.087V34.5455H364.258V62.5455ZM455.087 48.5455V80.3636H483.087V48.5455H455.087ZM469.087 66.3636H403.746V94.3636H469.087V66.3636ZM389.746 80.3636V105.364H417.746V80.3636H389.746ZM403.746 119.364H463.69V91.3636H403.746V119.364ZM449.69 105.364V137.182H477.69V105.364H449.69ZM463.69 123.182H403.746V151.182H463.69V123.182ZM389.746 137.182V162.182H417.746V137.182H389.746ZM403.746 176.182H468.803V148.182H403.746V176.182ZM454.803 162.182V194H482.803V162.182H454.803ZM468.803 180H364.258V208H468.803V180ZM488.672 194H474.672V208H488.672V194ZM488.672 48.5455V34.5455H474.672V48.5455H488.672ZM579.794 54.4403L573.681 67.0351L579.794 54.4403ZM598.686 71.4148L610.643 64.1331L610.643 64.1331L598.686 71.4148ZM598.473 124.327L586.729 116.705L586.712 116.733L586.694 116.76L598.473 124.327ZM579.084 140.52L573.472 127.694L573.459 127.7L573.445 127.705L579.084 140.52ZM512.536 145.989H498.536V159.989H512.536V145.989ZM512.536 115.307V101.307H498.536V115.307H512.536ZM553.942 113.602L558.541 126.825L558.596 126.806L558.65 126.787L553.942 113.602ZM561.541 107.991L550.092 99.9346L550.042 100.006L549.992 100.078L561.541 107.991ZM561.541 87.821L549.86 95.5386L549.94 95.6597L550.023 95.7791L561.541 87.821ZM553.942 81.9972L548.84 95.0346L548.953 95.0788L549.067 95.1211L553.942 81.9972ZM528.161 80.0795V66.0795H514.161V80.0795H528.161ZM528.161 194V208H542.161V194H528.161ZM573.899 127.239L586.194 120.542L582.216 113.239H573.899V127.239ZM610.263 194V208H633.83L622.557 187.303L610.263 194ZM567.365 194L555.005 200.575L558.955 208H567.365V194ZM531.854 127.239V113.239H508.55L519.493 133.813L531.854 127.239ZM502.672 194V48.5455H474.672V194H502.672ZM488.672 62.5455H551.456V34.5455H488.672V62.5455ZM551.456 62.5455C560.551 62.5455 567.832 64.1964 573.681 67.0351L585.907 41.8456C575.563 36.8244 563.952 34.5455 551.456 34.5455V62.5455ZM573.681 67.0351C579.463 69.8419 583.687 73.7017 586.729 78.6965L610.643 64.1331C604.689 54.3551 596.318 46.8987 585.907 41.8456L573.681 67.0351ZM586.729 78.6965C589.652 83.4973 591.433 89.7231 591.433 97.9773H619.433C619.433 85.5875 616.716 74.105 610.643 64.1331L586.729 78.6965ZM591.433 97.9773C591.433 106.293 589.599 112.284 586.729 116.705L610.217 131.948C616.627 122.071 619.433 110.494 619.433 97.9773H591.433ZM586.694 116.76C583.7 121.421 579.463 125.073 573.472 127.694L584.695 153.346C595.371 148.675 604.06 141.532 610.252 131.893L586.694 116.76ZM573.445 127.705C567.287 130.415 559.598 131.989 550.036 131.989V159.989C562.632 159.989 574.308 157.916 584.722 153.334L573.445 127.705ZM550.036 131.989H512.536V159.989H550.036V131.989ZM526.536 145.989V115.307H498.536V145.989H526.536ZM512.536 129.307H542.081V101.307H512.536V129.307ZM542.081 129.307C547.787 129.307 553.387 128.618 558.541 126.825L549.342 100.379C547.963 100.859 545.656 101.307 542.081 101.307V129.307ZM558.65 126.787C564.351 124.751 569.45 121.218 573.09 115.905L549.992 100.078C550.014 100.047 550.042 100.027 550.012 100.049C549.968 100.081 549.75 100.233 549.233 100.418L558.65 126.787ZM572.99 116.048C576.905 110.486 578.24 104.074 578.24 97.9773H550.24C550.24 100.119 549.776 100.383 550.092 99.9346L572.99 116.048ZM578.24 97.9773C578.24 91.8563 576.915 85.4441 573.059 79.863L550.023 95.7791C549.765 95.4063 550.24 95.7649 550.24 97.9773H578.24ZM573.222 80.1034C569.649 74.696 564.587 71.0165 558.816 68.8732L549.067 95.1211C549.557 95.3029 549.764 95.4521 549.812 95.4886C549.847 95.5157 549.847 95.5182 549.86 95.5386L573.222 80.1034ZM559.043 68.9598C553.719 66.8764 547.935 66.0795 542.081 66.0795V94.0795C545.508 94.0795 547.63 94.561 548.84 95.0346L559.043 68.9598ZM542.081 66.0795H528.161V94.0795H542.081V66.0795ZM514.161 80.0795V194H542.161V80.0795H514.161ZM528.161 180H488.672V208H528.161V180ZM561.605 133.935L597.968 200.697L622.557 187.303L586.194 120.542L561.605 133.935ZM610.263 180H567.365V208H610.263V180ZM579.725 187.425L544.214 120.664L519.493 133.813L555.005 200.575L579.725 187.425ZM531.854 141.239H573.899V113.239H531.854V141.239Z" fill="#F3BF55" mask="url(#path-1-outside-1_52_309)"/>
<mask id="path-3-outside-2_52_309" maskUnits="userSpaceOnUse" x="1" y="40" width="623" height="162" fill="black">
<rect fill="white" x="1" y="40" width="623" height="162"/>
<path d="M9.375 194V48.5455H48.8636V105.364H101.136V48.5455H140.625V194H101.136V137.182H48.8636V194H9.375ZM198.864 48.5455V194H159.375V48.5455H198.864ZM273.544 194H217.578V48.5455H272.976C287.938 48.5455 300.864 51.4574 311.754 57.2812C322.692 63.0578 331.12 71.3911 337.038 82.2812C343.004 93.1241 345.987 106.121 345.987 121.273C345.987 136.424 343.028 149.445 337.109 160.335C331.191 171.178 322.81 179.511 311.967 185.335C301.125 191.112 288.317 194 273.544 194ZM257.067 160.477H272.124C279.321 160.477 285.452 159.317 290.518 156.997C295.632 154.677 299.515 150.676 302.166 144.994C304.865 139.312 306.214 131.405 306.214 121.273C306.214 111.14 304.841 103.233 302.095 97.5511C299.396 91.8693 295.419 87.8684 290.163 85.5483C284.955 83.2282 278.563 82.0682 270.987 82.0682H257.067V160.477ZM364.258 194V48.5455H469.087V80.3636H403.746V105.364H463.69V137.182H403.746V162.182H468.803V194H364.258ZM488.672 194V48.5455H551.456C562.251 48.5455 571.697 50.5104 579.794 54.4403C587.891 58.3703 594.188 64.0284 598.686 71.4148C603.184 78.8011 605.433 87.6553 605.433 97.9773C605.433 108.394 603.113 117.177 598.473 124.327C593.88 131.476 587.417 136.874 579.084 140.52C570.798 144.166 561.115 145.989 550.036 145.989H512.536V115.307H542.081C546.721 115.307 550.675 114.739 553.942 113.602C557.256 112.419 559.789 110.548 561.541 107.991C563.34 105.435 564.24 102.097 564.24 97.9773C564.24 93.8106 563.34 90.4252 561.541 87.821C559.789 85.1695 557.256 83.2282 553.942 81.9972C550.675 80.7187 546.721 80.0795 542.081 80.0795H528.161V194H488.672ZM573.899 127.239L610.263 194H567.365L531.854 127.239H573.899Z"/>
</mask>
<path d="M9.375 194V48.5455H48.8636V105.364H101.136V48.5455H140.625V194H101.136V137.182H48.8636V194H9.375ZM198.864 48.5455V194H159.375V48.5455H198.864ZM273.544 194H217.578V48.5455H272.976C287.938 48.5455 300.864 51.4574 311.754 57.2812C322.692 63.0578 331.12 71.3911 337.038 82.2812C343.004 93.1241 345.987 106.121 345.987 121.273C345.987 136.424 343.028 149.445 337.109 160.335C331.191 171.178 322.81 179.511 311.967 185.335C301.125 191.112 288.317 194 273.544 194ZM257.067 160.477H272.124C279.321 160.477 285.452 159.317 290.518 156.997C295.632 154.677 299.515 150.676 302.166 144.994C304.865 139.312 306.214 131.405 306.214 121.273C306.214 111.14 304.841 103.233 302.095 97.5511C299.396 91.8693 295.419 87.8684 290.163 85.5483C284.955 83.2282 278.563 82.0682 270.987 82.0682H257.067V160.477ZM364.258 194V48.5455H469.087V80.3636H403.746V105.364H463.69V137.182H403.746V162.182H468.803V194H364.258ZM488.672 194V48.5455H551.456C562.251 48.5455 571.697 50.5104 579.794 54.4403C587.891 58.3703 594.188 64.0284 598.686 71.4148C603.184 78.8011 605.433 87.6553 605.433 97.9773C605.433 108.394 603.113 117.177 598.473 124.327C593.88 131.476 587.417 136.874 579.084 140.52C570.798 144.166 561.115 145.989 550.036 145.989H512.536V115.307H542.081C546.721 115.307 550.675 114.739 553.942 113.602C557.256 112.419 559.789 110.548 561.541 107.991C563.34 105.435 564.24 102.097 564.24 97.9773C564.24 93.8106 563.34 90.4252 561.541 87.821C559.789 85.1695 557.256 83.2282 553.942 81.9972C550.675 80.7187 546.721 80.0795 542.081 80.0795H528.161V194H488.672ZM573.899 127.239L610.263 194H567.365L531.854 127.239H573.899Z" fill="#E30303"/>
<path d="M9.375 194H1.375V202H9.375V194ZM9.375 48.5455V40.5455H1.375V48.5455H9.375ZM48.8636 48.5455H56.8636V40.5455H48.8636V48.5455ZM48.8636 105.364H40.8636V113.364H48.8636V105.364ZM101.136 105.364V113.364H109.136V105.364H101.136ZM101.136 48.5455V40.5455H93.1364V48.5455H101.136ZM140.625 48.5455H148.625V40.5455H140.625V48.5455ZM140.625 194V202H148.625V194H140.625ZM101.136 194H93.1364V202H101.136V194ZM101.136 137.182H109.136V129.182H101.136V137.182ZM48.8636 137.182V129.182H40.8636V137.182H48.8636ZM48.8636 194V202H56.8636V194H48.8636ZM17.375 194V48.5455H1.375V194H17.375ZM9.375 56.5455H48.8636V40.5455H9.375V56.5455ZM40.8636 48.5455V105.364H56.8636V48.5455H40.8636ZM48.8636 113.364H101.136V97.3636H48.8636V113.364ZM109.136 105.364V48.5455H93.1364V105.364H109.136ZM101.136 56.5455H140.625V40.5455H101.136V56.5455ZM132.625 48.5455V194H148.625V48.5455H132.625ZM140.625 186H101.136V202H140.625V186ZM109.136 194V137.182H93.1364V194H109.136ZM101.136 129.182H48.8636V145.182H101.136V129.182ZM40.8636 137.182V194H56.8636V137.182H40.8636ZM48.8636 186H9.375V202H48.8636V186ZM198.864 48.5455H206.864V40.5455H198.864V48.5455ZM198.864 194V202H206.864V194H198.864ZM159.375 194H151.375V202H159.375V194ZM159.375 48.5455V40.5455H151.375V48.5455H159.375ZM190.864 48.5455V194H206.864V48.5455H190.864ZM198.864 186H159.375V202H198.864V186ZM167.375 194V48.5455H151.375V194H167.375ZM159.375 56.5455H198.864V40.5455H159.375V56.5455ZM217.578 194H209.578V202H217.578V194ZM217.578 48.5455V40.5455H209.578V48.5455H217.578ZM311.754 57.2812L307.982 64.3358L308 64.3456L308.018 64.3553L311.754 57.2812ZM337.038 82.2812L330.009 86.1014L330.019 86.1196L330.029 86.1378L337.038 82.2812ZM337.109 160.335L344.131 164.168L344.135 164.162L344.138 164.155L337.109 160.335ZM311.967 185.335L315.729 192.396L315.741 192.389L315.753 192.383L311.967 185.335ZM257.067 160.477H249.067V168.477H257.067V160.477ZM290.518 156.997L287.213 149.712L287.2 149.718L287.188 149.724L290.518 156.997ZM302.166 144.994L294.94 141.562L294.928 141.587L294.917 141.611L302.166 144.994ZM302.095 97.5511L294.869 100.984L294.881 101.008L294.892 101.032L302.095 97.5511ZM290.163 85.5483L286.908 92.856L286.92 92.8615L286.933 92.8669L290.163 85.5483ZM257.067 82.0682V74.0682H249.067V82.0682H257.067ZM273.544 186H217.578V202H273.544V186ZM225.578 194V48.5455H209.578V194H225.578ZM217.578 56.5455H272.976V40.5455H217.578V56.5455ZM272.976 56.5455C286.898 56.5455 298.473 59.251 307.982 64.3358L315.527 50.2267C303.255 43.6638 288.978 40.5455 272.976 40.5455V56.5455ZM308.018 64.3553C317.558 69.3938 324.842 76.5936 330.009 86.1014L344.067 78.4611C337.397 66.1885 327.825 56.7217 315.49 50.2072L308.018 64.3553ZM330.029 86.1378C335.215 95.5618 337.987 107.17 337.987 121.273H353.987C353.987 105.072 350.794 90.6863 344.047 78.4247L330.029 86.1378ZM337.987 121.273C337.987 135.384 335.235 147.031 330.08 156.515L344.138 164.155C350.821 151.859 353.987 137.465 353.987 121.273H337.987ZM330.087 156.502C324.91 165.987 317.651 173.201 308.182 178.288L315.753 192.383C327.969 185.821 337.472 176.369 344.131 164.168L330.087 156.502ZM308.206 178.275C298.733 183.321 287.269 186 273.544 186V202C289.365 202 303.516 198.902 315.729 192.396L308.206 178.275ZM257.067 168.477H272.124V152.477H257.067V168.477ZM272.124 168.477C280.148 168.477 287.48 167.188 293.849 164.271L287.188 149.724C283.424 151.447 278.493 152.477 272.124 152.477V168.477ZM293.824 164.282C300.881 161.081 306.058 155.573 309.416 148.377L294.917 141.611C292.972 145.779 290.384 148.273 287.213 149.712L293.824 164.282ZM309.392 148.427C312.819 141.213 314.214 131.949 314.214 121.273H298.214C298.214 130.861 296.911 137.412 294.94 141.562L309.392 148.427ZM314.214 121.273C314.214 110.584 312.793 101.3 309.298 94.0698L294.892 101.032C296.89 105.166 298.214 111.697 298.214 121.273H314.214ZM309.321 94.1187C305.884 86.8813 300.576 81.3999 293.394 78.2297L286.933 92.8669C290.262 94.3368 292.909 96.8573 294.869 100.984L309.321 94.1187ZM293.419 78.2405C286.908 75.3403 279.334 74.0682 270.987 74.0682V90.0682C277.792 90.0682 283.002 91.1161 286.908 92.856L293.419 78.2405ZM270.987 74.0682H257.067V90.0682H270.987V74.0682ZM249.067 82.0682V160.477H265.067V82.0682H249.067ZM364.258 194H356.258V202H364.258V194ZM364.258 48.5455V40.5455H356.258V48.5455H364.258ZM469.087 48.5455H477.087V40.5455H469.087V48.5455ZM469.087 80.3636V88.3636H477.087V80.3636H469.087ZM403.746 80.3636V72.3636H395.746V80.3636H403.746ZM403.746 105.364H395.746V113.364H403.746V105.364ZM463.69 105.364H471.69V97.3636H463.69V105.364ZM463.69 137.182V145.182H471.69V137.182H463.69ZM403.746 137.182V129.182H395.746V137.182H403.746ZM403.746 162.182H395.746V170.182H403.746V162.182ZM468.803 162.182H476.803V154.182H468.803V162.182ZM468.803 194V202H476.803V194H468.803ZM372.258 194V48.5455H356.258V194H372.258ZM364.258 56.5455H469.087V40.5455H364.258V56.5455ZM461.087 48.5455V80.3636H477.087V48.5455H461.087ZM469.087 72.3636H403.746V88.3636H469.087V72.3636ZM395.746 80.3636V105.364H411.746V80.3636H395.746ZM403.746 113.364H463.69V97.3636H403.746V113.364ZM455.69 105.364V137.182H471.69V105.364H455.69ZM463.69 129.182H403.746V145.182H463.69V129.182ZM395.746 137.182V162.182H411.746V137.182H395.746ZM403.746 170.182H468.803V154.182H403.746V170.182ZM460.803 162.182V194H476.803V162.182H460.803ZM468.803 186H364.258V202H468.803V186ZM488.672 194H480.672V202H488.672V194ZM488.672 48.5455V40.5455H480.672V48.5455H488.672ZM579.794 54.4403L576.301 61.6373L579.794 54.4403ZM598.686 71.4148L605.519 67.2538L605.519 67.2538L598.686 71.4148ZM598.473 124.327L591.762 119.971L591.752 119.987L591.742 120.003L598.473 124.327ZM579.084 140.52L575.877 133.191L575.87 133.194L575.862 133.197L579.084 140.52ZM512.536 145.989H504.536V153.989H512.536V145.989ZM512.536 115.307V107.307H504.536V115.307H512.536ZM553.942 113.602L556.57 121.158L556.601 121.147L556.632 121.136L553.942 113.602ZM561.541 107.991L554.999 103.388L554.97 103.428L554.942 103.47L561.541 107.991ZM561.541 87.821L554.867 92.2311L554.912 92.3003L554.959 92.3685L561.541 87.821ZM553.942 81.9972L551.027 89.4471L551.091 89.4724L551.156 89.4965L553.942 81.9972ZM528.161 80.0795V72.0795H520.161V80.0795H528.161ZM528.161 194V202H536.161V194H528.161ZM573.899 127.239L580.925 123.412L578.651 119.239H573.899V127.239ZM610.263 194V202H623.73L617.288 190.173L610.263 194ZM567.365 194L560.302 197.757L562.559 202H567.365V194ZM531.854 127.239V119.239H518.537L524.791 130.996L531.854 127.239ZM496.672 194V48.5455H480.672V194H496.672ZM488.672 56.5455H551.456V40.5455H488.672V56.5455ZM551.456 56.5455C561.28 56.5455 569.489 58.331 576.301 61.6373L583.287 47.2433C573.906 42.6899 563.223 40.5455 551.456 40.5455V56.5455ZM576.301 61.6373C583.075 64.9255 588.187 69.556 591.853 75.5757L605.519 67.2538C600.188 58.5008 592.706 51.8151 583.287 47.2433L576.301 61.6373ZM591.853 75.5757C595.452 81.4847 597.433 88.8369 597.433 97.9773H613.433C613.433 86.4737 610.917 76.1176 605.519 67.2538L591.853 75.5757ZM597.433 97.9773C597.433 107.194 595.391 114.381 591.762 119.971L605.184 128.682C610.836 119.973 613.433 109.594 613.433 97.9773H597.433ZM591.742 120.003C588.063 125.73 582.872 130.13 575.877 133.191L582.29 147.849C591.962 143.618 599.697 137.222 605.204 128.651L591.742 120.003ZM575.862 133.197C568.792 136.308 560.248 137.989 550.036 137.989V153.989C561.982 153.989 572.804 152.023 582.306 147.842L575.862 133.197ZM550.036 137.989H512.536V153.989H550.036V137.989ZM520.536 145.989V115.307H504.536V145.989H520.536ZM512.536 123.307H542.081V107.307H512.536V123.307ZM542.081 123.307C547.33 123.307 552.225 122.67 556.57 121.158L551.314 106.046C549.125 106.808 546.112 107.307 542.081 107.307V123.307ZM556.632 121.136C561.311 119.465 565.31 116.645 568.141 112.513L554.942 103.47C554.269 104.451 553.202 105.372 551.251 106.068L556.632 121.136ZM568.084 112.595C571.091 108.321 572.24 103.227 572.24 97.9773H556.24C556.24 100.967 555.59 102.548 554.999 103.388L568.084 112.595ZM572.24 97.9773C572.24 92.6939 571.098 87.5789 568.123 83.2736L554.959 92.3685C555.583 93.2715 556.24 94.9273 556.24 97.9773H572.24ZM568.216 83.411C565.423 79.1846 561.445 76.2501 556.727 74.4978L551.156 89.4965C553.067 90.2063 554.155 91.1544 554.867 92.2311L568.216 83.411ZM556.857 74.5472C552.415 72.8089 547.414 72.0795 542.081 72.0795V88.0795C546.028 88.0795 548.935 88.6286 551.027 89.4471L556.857 74.5472ZM542.081 72.0795H528.161V88.0795H542.081V72.0795ZM520.161 80.0795V194H536.161V80.0795H520.161ZM528.161 186H488.672V202H528.161V186ZM566.874 131.065L603.237 197.827L617.288 190.173L580.925 123.412L566.874 131.065ZM610.263 186H567.365V202H610.263V186ZM574.428 190.243L538.917 123.482L524.791 130.996L560.302 197.757L574.428 190.243ZM531.854 135.239H573.899V119.239H531.854V135.239Z" fill="black" mask="url(#path-3-outside-2_52_309)"/>
</svg>
